<?xml version="1.0" encoding="iso-8859-1"?>
<!-- Uploaded to: SVG Repo, www.svgrepo.com, Generator: SVG Repo Mixer Tools -->
<svg height="800px" width="800px" version="1.1" id="Capa_1" xmlns="http://www.w3.org/2000/svg" xmlns:xlink="http://www.w3.org/1999/xlink" 
	 viewBox="0 0 273.762 273.762" xml:space="preserve">
<g>
	<path style="fill:#010002;" d="M262.478,3.935c-3.976-3.943-9.964-5.037-15.093-2.763L15.316,104.514
		c-5.57,2.475-8.806,8.36-7.919,14.392c0.881,6.032,5.678,10.742,11.727,11.515l104.979,13.429l8.278,117.272
		c0.441,6.244,5.096,11.389,11.27,12.439c0.772,0.136,1.534,0.201,2.301,0.201c5.336,0,10.285-3.155,12.466-8.191l106.97-246.564
		C267.618,13.867,266.465,7.879,262.478,3.935z M155.595,203.756l-5.145-72.938c-0.457-6.462-5.412-11.705-11.841-12.526
		L70.734,109.6l155.807-69.381L155.595,203.756z"/>
</g>
</svg>